<?xml version="1.0" standalone="no"?>
<!DOCTYPE svg PUBLIC "-//W3C//DTD SVG 20010904//EN"
 "http://www.w3.org/TR/2001/REC-SVG-20010904/DTD/svg10.dtd">
<svg version="1.0" xmlns="http://www.w3.org/2000/svg"
 width="725.000000pt" height="725.000000pt" viewBox="0 0 725.000000 725.000000"
 preserveAspectRatio="xMidYMid meet">
<metadata>
Created by potrace 1.14, written by Peter Selinger 2001-2017
</metadata>
<g transform="translate(0.000000,725.000000) scale(0.100000,-0.100000)"
fill="#000000" stroke="none">
<path d="M1588 7042 c-108 -1 -178 -6 -178 -12 0 -6 -13 -10 -28 -10 -15 0
-33 -5 -40 -12 -7 -7 -12 -9 -12 -5 0 4 -10 2 -22 -5 -13 -7 -25 -13 -28 -14
-3 0 -19 -7 -37 -13 -18 -7 -34 -11 -35 -9 -3 3 -17 -8 -53 -40 -8 -7 -17 -11
-19 -10 -3 2 -15 -5 -26 -14 -11 -10 -22 -18 -25 -18 -3 0 -13 -8 -24 -19 -10
-10 -22 -20 -27 -22 -17 -7 -129 -141 -126 -150 1 -5 -5 -12 -13 -15 -8 -3
-12 -10 -9 -15 3 -5 0 -9 -6 -9 -6 0 -8 -4 -5 -10 3 -5 2 -10 -3 -10 -7 0 -45
-65 -46 -82 -1 -3 -4 -10 -8 -14 -5 -4 -8 -16 -8 -26 0 -10 -5 -18 -12 -18 -6
0 -9 -3 -5 -6 3 -4 0 -21 -8 -39 -7 -19 -11 -36 -8 -39 3 -3 2 -13 -2 -23 -21
-48 -41 -323 -24 -323 3 0 7 -15 7 -32 3 -53 16 -121 31 -160 4 -13 6 -29 4
-35 -3 -7 0 -13 6 -13 6 0 11 -13 11 -30 0 -16 5 -30 10 -30 6 0 10 -11 10
-25 0 -13 8 -29 18 -34 9 -6 13 -11 9 -11 -5 0 0 -16 12 -36 12 -19 21 -42 21
-50 0 -8 4 -14 9 -14 5 0 15 -15 22 -32 7 -18 23 -41 36 -51 12 -10 22 -21 21
-25 -2 -11 15 -46 26 -54 7 -5 7 -8 -1 -8 -7 0 -13 -9 -13 -20 0 -11 -3 -20
-8 -20 -4 0 -13 -9 -20 -21 -11 -17 -11 -20 0 -14 8 4 7 1 -2 -7 -8 -7 -16
-19 -18 -27 -1 -7 -9 -20 -17 -28 -8 -8 -15 -20 -15 -27 0 -8 -7 -19 -15 -26
-8 -7 -13 -16 -10 -20 3 -5 -2 -15 -10 -23 -8 -9 -15 -19 -15 -24 0 -15 -25
-63 -32 -63 -4 0 -5 -7 -2 -15 4 -8 1 -15 -5 -15 -6 0 -11 -10 -11 -23 0 -13
-3 -27 -8 -31 -4 -4 -7 -11 -8 -14 -1 -9 -12 -38 -29 -77 -8 -17 -17 -44 -20
-60 -18 -82 -23 -99 -25 -90 -3 11 -18 -61 -23 -111 -2 -17 -7 -37 -12 -44 -4
-7 -8 -35 -8 -62 1 -26 -2 -48 -6 -48 -4 0 -7 -36 -8 -81 -1 -44 -4 -83 -7
-86 -3 -4 0 -13 7 -21 10 -13 9 -14 -1 -8 -11 6 -13 1 -11 -20 2 -16 -1 -35
-6 -43 -6 -11 -4 -13 10 -7 18 6 18 6 2 -12 -9 -10 -14 -22 -10 -26 9 -9 12
-26 18 -121 8 -124 10 -137 32 -220 3 -11 8 -37 10 -57 3 -21 9 -38 14 -38 5
0 9 -14 9 -31 0 -16 3 -28 8 -25 4 2 8 -8 9 -22 0 -15 11 -49 24 -77 12 -27
23 -54 23 -60 1 -5 9 -27 19 -49 9 -21 17 -42 17 -47 0 -5 4 -9 10 -9 5 0 9
-3 8 -7 -1 -5 8 -28 20 -52 12 -25 22 -51 22 -58 0 -8 4 -11 10 -8 5 3 10 -1
10 -10 0 -16 28 -65 43 -76 5 -3 8 -10 8 -15 -1 -5 6 -17 14 -27 8 -9 15 -21
15 -26 0 -5 4 -11 9 -13 5 -1 11 -9 13 -17 3 -14 21 -41 46 -66 6 -8 12 -17
12 -22 0 -5 16 -25 36 -46 20 -20 33 -37 28 -37 -4 0 1 -7 12 -15 10 -8 15
-15 10 -15 -5 0 5 -14 23 -30 17 -17 31 -32 31 -35 0 -10 49 -55 60 -55 7 0
11 -3 7 -6 -8 -8 16 -33 26 -27 4 2 7 -3 7 -11 0 -9 5 -16 10 -16 6 0 21 -11
34 -25 13 -14 29 -25 35 -25 7 0 9 -4 6 -10 -3 -5 1 -10 9 -10 9 0 16 -5 16
-10 0 -12 50 -59 63 -60 5 0 17 -10 27 -22 13 -17 15 -27 8 -35 -6 -7 -7 -13
-4 -13 4 0 -5 -11 -19 -25 -23 -24 -27 -32 -24 -51 0 -4 -5 -10 -13 -15 -7 -5
-13 -12 -14 -16 -1 -17 -28 -63 -36 -63 -4 0 -8 -11 -8 -25 0 -14 -4 -25 -10
-25 -5 0 -9 -3 -8 -7 1 -5 -4 -19 -12 -33 -7 -14 -13 -27 -13 -30 1 -8 -8 -34
-18 -52 -5 -10 -6 -24 -3 -33 3 -8 1 -15 -5 -15 -6 0 -11 -13 -11 -28 0 -15
-6 -34 -12 -41 -11 -11 -10 -12 2 -6 12 6 13 5 3 -6 -7 -7 -13 -26 -13 -41 0
-15 -4 -28 -8 -28 -4 0 -7 -20 -7 -45 1 -25 -2 -48 -7 -51 -11 -7 -10 -454 1
-454 4 0 8 -10 7 -23 -1 -12 3 -38 9 -57 7 -19 10 -41 8 -47 -3 -7 0 -13 5
-13 6 0 9 -8 7 -17 -1 -10 2 -23 7 -30 5 -6 11 -22 12 -35 6 -40 38 -118 49
-118 5 0 5 -4 2 -10 -3 -5 -1 -10 5 -10 6 0 9 -4 6 -8 -6 -11 28 -76 55 -105
10 -11 19 -28 19 -36 0 -8 12 -26 27 -38 14 -13 23 -23 19 -23 -4 0 9 -15 29
-32 19 -18 35 -36 35 -40 0 -9 98 -106 103 -102 2 2 12 -5 22 -16 10 -11 22
-20 27 -20 5 0 18 -9 30 -20 12 -11 34 -26 50 -32 15 -7 28 -17 28 -21 0 -5 5
-5 10 -2 6 3 10 1 10 -5 0 -7 7 -10 15 -6 10 3 15 -1 15 -11 0 -9 3 -14 6 -10
4 3 19 0 35 -9 16 -8 29 -11 29 -7 0 5 4 3 8 -2 12 -18 138 -55 171 -51 19 2
34 -1 37 -8 5 -14 211 -16 232 -2 7 4 32 9 55 11 23 2 57 6 75 10 22 4 32 2
32 -6 0 -7 3 -10 6 -7 3 4 21 -8 39 -25 67 -64 93 -87 99 -87 3 0 14 -8 24
-18 35 -32 58 -49 90 -63 18 -8 32 -18 32 -23 0 -4 6 -6 14 -3 8 3 20 -1 26
-8 7 -8 17 -12 22 -9 6 4 13 2 17 -4 3 -6 18 -13 31 -16 14 -3 39 -8 55 -12
47 -10 249 -8 271 4 10 5 23 10 27 10 19 0 97 27 97 34 0 4 3 7 8 6 12 -4 71
35 66 44 -3 4 4 8 15 8 12 0 21 5 21 11 0 6 6 9 13 6 6 -2 20 2 30 11 12 11
17 12 17 2 0 -10 3 -10 15 0 10 9 15 9 15 1 0 -6 7 -11 15 -11 8 0 15 -4 15
-10 0 -5 7 -10 15 -10 8 0 15 -4 15 -10 0 -5 5 -10 10 -10 6 0 21 -9 33 -20
12 -11 27 -18 34 -16 7 3 13 1 13 -5 0 -6 5 -7 10 -4 5 3 10 1 10 -4 0 -6 3
-10 8 -9 4 0 14 -1 22 -5 61 -23 108 -30 217 -29 78 0 129 4 138 12 7 6 19 10
27 9 7 -2 22 2 33 8 11 6 22 12 25 12 41 11 49 14 45 21 -3 5 2 7 11 6 9 -1
28 8 41 20 14 13 28 22 32 21 12 -4 51 30 43 38 -4 4 0 6 9 3 9 -4 20 2 27 13
7 10 19 19 27 19 8 0 15 5 15 10 0 6 7 10 17 10 9 0 14 3 10 6 -7 8 17 34 32
34 5 0 14 6 18 14 4 8 17 16 28 18 11 1 23 8 27 13 5 6 8 6 8 -1 0 -7 22 -11
56 -12 31 0 59 -4 63 -9 8 -12 201 -11 220 1 8 5 29 9 48 8 18 -1 33 3 33 7 0
5 17 9 37 9 21 0 39 5 41 11 2 6 14 11 27 11 13 0 27 5 30 11 4 6 13 8 21 5 8
-3 17 1 20 9 4 8 10 13 14 10 4 -3 23 5 42 18 19 12 51 31 71 41 20 11 37 24
37 29 0 6 3 8 6 5 3 -4 14 1 24 10 36 33 49 42 60 42 6 0 8 4 5 10 -3 5 -2 10
4 10 13 0 66 53 63 62 -1 5 5 8 13 8 8 0 15 3 15 8 0 4 12 21 28 39 66 75 82
96 76 104 -3 5 -1 9 4 9 7 0 76 113 78 129 1 9 28 65 34 71 3 3 6 12 7 20 1 8
3 24 5 35 2 11 8 23 15 28 6 4 10 18 7 31 -2 14 1 26 9 29 9 3 12 16 9 36 -2
17 0 31 5 31 4 0 9 21 10 46 2 26 6 51 10 58 10 14 9 354 -1 417 -4 25 -9 59
-11 75 -7 56 -14 86 -23 113 -11 29 -23 75 -28 106 -1 11 -9 33 -17 49 -9 16
-13 35 -10 44 4 10 2 13 -5 8 -7 -4 -12 -2 -12 4 0 17 -52 123 -71 145 -10 11
-18 22 -19 25 -5 32 -14 49 -23 43 -6 -4 -8 0 -4 10 3 9 1 17 -6 20 -13 4 -18
67 -5 67 4 0 23 15 42 34 20 18 37 31 40 29 8 -8 55 44 48 53 -4 4 -2 4 4 1
12 -7 55 31 81 69 9 14 22 23 29 20 8 -3 14 1 14 8 0 18 43 66 58 66 7 0 11 4
7 10 -3 5 3 18 15 30 11 11 20 25 20 31 0 5 4 8 9 5 5 -3 20 12 35 34 14 22
30 40 34 40 4 0 14 15 21 33 8 17 23 38 33 45 10 7 16 17 13 21 -2 5 6 20 20
35 13 14 22 26 20 26 -2 0 16 34 40 75 25 41 42 75 39 75 -3 0 2 7 10 16 9 8
16 24 16 35 0 10 4 19 9 19 8 0 17 21 19 44 0 5 4 12 9 15 13 9 33 59 33 81 0
11 4 20 10 20 5 0 9 3 9 8 -3 16 14 72 22 72 5 0 9 10 9 23 0 13 3 27 7 31 4
3 8 12 9 19 1 7 7 32 14 57 6 25 13 58 14 73 1 16 7 32 13 35 5 4 9 28 7 55
-1 26 2 47 7 47 6 0 9 26 8 58 -1 33 2 65 7 73 11 17 13 209 2 209 -4 0 -8 38
-8 85 0 50 -4 85 -10 85 -6 0 -9 22 -7 53 2 28 -1 58 -6 65 -5 7 -11 25 -12
40 -1 15 -5 35 -9 45 -5 9 -6 24 -2 32 3 8 2 15 -3 15 -9 0 -31 68 -31 99 0
11 -4 21 -10 21 -5 0 -10 11 -10 24 0 14 -5 28 -11 31 -6 4 -8 12 -6 19 3 6
-1 20 -9 30 -7 11 -11 23 -8 27 3 5 0 9 -5 9 -6 0 -11 8 -11 18 0 10 -5 23
-12 30 -7 7 -9 12 -5 12 4 0 -2 16 -13 35 -11 20 -20 42 -20 50 0 8 -4 15 -10
15 -5 0 -10 8 -10 19 0 10 -7 24 -15 31 -9 7 -13 15 -11 17 3 3 -11 29 -30 58
-19 30 -34 58 -34 63 0 6 -6 12 -14 15 -23 9 -24 59 -1 82 37 39 65 75 65 84
0 5 7 17 16 25 8 9 16 25 17 36 1 11 7 22 14 24 7 3 13 14 13 24 0 10 5 23 11
29 6 6 12 17 13 24 2 8 8 27 14 42 7 16 12 33 12 38 0 5 4 9 8 9 7 0 12 24 15
68 0 6 3 12 7 12 4 0 6 12 5 28 -1 15 2 35 7 45 5 10 10 36 10 58 0 21 4 42 9
44 12 8 8 148 -5 164 -8 11 -8 13 2 7 6 -4 12 -3 12 1 0 5 -6 15 -12 22 -11
11 -10 12 2 6 12 -6 13 -5 3 6 -7 7 -13 34 -13 59 0 26 -3 50 -7 54 -4 4 -8
19 -9 34 0 14 -6 28 -12 30 -5 1 -8 12 -5 22 3 11 0 20 -6 20 -6 0 -10 3 -9 8
4 15 -14 72 -23 72 -5 0 -9 7 -9 16 0 8 -7 22 -15 31 -8 8 -13 18 -11 22 3 4
-8 23 -25 42 -16 19 -29 40 -29 47 0 7 -4 10 -10 7 -5 -3 -10 -1 -10 5 0 7
-11 24 -24 38 -14 15 -38 41 -54 59 -16 18 -32 30 -35 27 -3 -3 -10 4 -17 15
-6 12 -15 21 -21 21 -6 0 -29 13 -52 28 -40 27 -77 45 -86 42 -2 -1 -7 2 -10
7 -9 13 -65 37 -80 34 -8 -1 -17 1 -20 6 -17 23 -87 33 -234 33 -152 0 -216
-9 -292 -41 -16 -6 -37 -13 -45 -13 -8 -1 -14 -7 -12 -15 2 -9 -3 -11 -13 -7
-13 5 -50 -11 -100 -42 -5 -4 -14 -7 -20 -7 -5 -1 -9 -7 -7 -14 1 -7 -2 -10
-7 -7 -5 4 -17 -1 -25 -10 -9 -8 -16 -12 -16 -8 0 3 -18 -11 -40 -32 -22 -22
-41 -37 -43 -34 -2 3 -19 -13 -38 -35 -19 -22 -43 -50 -54 -61 -22 -24 -65
-41 -65 -25 0 9 -22 20 -45 22 -5 0 -17 6 -25 13 -21 18 -97 46 -104 39 -3 -4
-6 1 -6 10 0 10 -6 14 -14 11 -7 -3 -20 1 -27 9 -8 7 -20 12 -27 9 -6 -2 -12
1 -12 7 0 6 -11 11 -24 11 -14 0 -28 5 -31 10 -3 6 -17 10 -31 10 -13 0 -24 4
-24 8 0 4 -14 9 -32 10 -18 2 -36 8 -40 15 -4 6 -10 8 -14 4 -4 -4 -16 1 -27
10 -15 13 -18 14 -12 3 7 -12 6 -13 -6 -4 -8 5 -21 10 -29 9 -8 -1 -23 4 -33
11 -10 6 -27 10 -38 7 -10 -3 -25 -1 -32 5 -6 5 -28 11 -47 13 -19 2 -41 7
-47 12 -7 5 -13 7 -13 5 0 -3 -21 -1 -47 4 -27 6 -80 12 -120 13 -39 2 -78 7
-85 11 -19 13 -477 11 -482 -1 -2 -6 -37 -10 -82 -9 -44 1 -85 -3 -92 -9 -8
-6 -31 -10 -52 -9 -21 2 -41 -2 -45 -8 -4 -6 -22 -10 -40 -8 -18 1 -40 -4 -48
-11 -9 -7 -24 -11 -34 -10 -10 1 -31 -3 -46 -10 -16 -6 -32 -9 -37 -6 -5 3
-10 0 -12 -6 -2 -6 -16 -12 -31 -12 -15 -1 -27 -5 -27 -9 0 -5 -11 -8 -25 -8
-14 0 -25 -4 -25 -8 0 -4 -15 -9 -32 -10 -18 -2 -34 -7 -36 -12 -2 -6 -12 -10
-23 -10 -11 0 -27 -4 -37 -9 -46 -25 -98 -45 -109 -43 -7 2 -13 -2 -13 -8 0
-5 -7 -10 -16 -10 -9 0 -39 -13 -65 -30 -27 -16 -49 -27 -49 -24 0 4 -7 0 -16
-7 -26 -21 -60 -19 -61 4 -1 11 -24 42 -51 68 -27 27 -47 51 -44 54 3 3 -2 5
-11 5 -9 0 -17 5 -17 10 0 6 -7 10 -16 10 -8 0 -13 4 -10 8 2 4 -9 14 -25 21
-16 7 -27 17 -23 22 3 5 2 8 -3 7 -4 -1 -18 3 -30 10 -13 7 -23 10 -23 7 0 -3
-10 3 -22 15 -12 11 -28 20 -35 20 -7 0 -13 5 -13 12 0 6 -3 9 -6 5 -4 -3 -19
0 -35 9 -16 8 -29 12 -29 10 0 -3 -12 1 -27 9 -15 8 -30 12 -35 9 -4 -3 -8 0
-8 5 0 6 -13 11 -29 11 -16 0 -31 6 -33 13 -2 9 -45 11 -180 9z"/>
</g>
</svg>
